# xmcd CD database file
#
# Track frame offsets:
#	150
#	89523
#	133089
#	166457
#	205222
#	246635
#	286633
#	303718
#
# Disc length: 4424 seconds
#
# Revision: 1
# Processed by: cddbd v1.5.2PL0 Copyright (c) Steve Scherf et al.
# Submitted via: CDex 1.70beta3
#
DISCID=77114608
DTITLE=KYOTO JAZZ CLASSICS - SUCCESSION OF SPIRIT a collection of spiritual jazz jams from IMPULSE!
DYEAR=2005
DGENRE=Jazz
TTITLE0=Love Is Everywhere - Pharoah Sanders
TTITLE1=Something About John Coltrane - Alice Coltrane
TTITLE2=African Drum Suite, Part Two - Archie Shepp
TTITLE3=Music Is The Healing Force Of The Universe - Albert Ayler
TTITLE4=Mansion Worlds - Pharoah Sanders
TTITLE5=Utopia: Man's Dream, Part 1 - John Klemmer
TTITLE6=Utopia: Man's Dream, Part 2 - John Klemmer
TTITLE7=The Blessing Song - Micheal White
EXTD=YEAR: 2005
EXTT0=
EXTT1=
EXTT2=
EXTT3=
EXTT4=
EXTT5=
EXTT6=
EXTT7=
PLAYORDER=
